HIERARCHY
ROOT ui
{
	 OFFSET 0 0 0
	 CHANNELS 3 XPosition YPosition Z Position
	 EndSite
	 {
	 OFFSET 0 -1 0
	 }
}
ROOT li
{
	 OFFSET 0 0 0
	 CHANNELS 3 XPosition YPosition Z Position
	 EndSite
	 {
	 OFFSET 0 -1 0
	 }
}
ROOT ul
{
	 OFFSET 0 0 0
	 CHANNELS 3 XPosition YPosition Z Position
	 EndSite
	 {
	 OFFSET 0 -1 0
	 }
}
ROOT ll
{
	 OFFSET 0 0 0
	 CHANNELS 3 XPosition YPosition Z Position
	 EndSite
	 {
	 OFFSET 0 -1 0
	 }
}
ROOT tt
{
	 OFFSET 0 0 0
	 CHANNELS 3 XPosition YPosition Z Position
	 EndSite
	 {
	 OFFSET 0 -1 0
	 }
}
ROOT tb
{
	 OFFSET 0 0 0
	 CHANNELS 3 XPosition YPosition Z Position
	 EndSite
	 {
	 OFFSET 0 -1 0
	 }
}
ROOT td
{
	 OFFSET 0 0 0
	 CHANNELS 3 XPosition YPosition Z Position
	 EndSite
	 {
	 OFFSET 0 -1 0
	 }
}
ROOT v
{
	 OFFSET 0 0 0
	 CHANNELS 3 XPosition YPosition Z Position
	 EndSite
	 {
	 OFFSET 0 -1 0
	 }
}
ROOT bn
{
	 OFFSET 0 0 0
	 CHANNELS 3 XPosition YPosition Z Position
	 EndSite
	 {
	 OFFSET 0 -1 0
	 }
}
MOTION
Frames: 16
Frame Time: 0.002
-0.005887194156646729	0.0011946120262145996	0		0.6168040771484375	-2.598248779296875	0		-0.9493864135742187	0.2527682037353516	0		-0.6240142822265625	-2.376663818359375	0		2.053041259765625	-0.21367999267578125	0		3.44954052734375	-0.3688389892578125	0		4.8459619140625	-0.13697731018066406	0		5.95833154296875	0.35521429443359376	0		-0.28495208740234373	5.917326171875	0		
-0.017515317916870117	-9.531919956207275E-4	0		0.5982383422851563	-2.606296142578125	0		-0.9490068359375	0.2524547882080078	0		-0.6536100463867187	-2.386658935546875	0		2.0293834228515624	-0.21960948181152343	0		3.42175927734375	-0.38766162109375	0		4.83907763671875	-0.1649454803466797	0		5.96279833984375	0.33264517211914063	0		-0.23568067932128905	5.932548828125	0		
-0.0051177282333374026	6.859340071678162E-4	0		0.62671142578125	-2.60779248046875	0		-0.9295697021484375	0.25898529052734376	0		-0.609267333984375	-2.400366455078125	0		2.0055908203125	-0.23752410888671874	0		3.421761474609375	-0.4267593994140625	0		4.8162626953125	-0.18475527954101562	0		5.9716142578125	0.3289867248535156	0		-0.2335651397705078	5.93027978515625	0		
0.0023124730587005616	0.007408185005187988	0		0.606261962890625	-2.5977685546875	0		-0.92417822265625	0.26269619750976564	0		-0.6088250122070312	-2.40059423828125	0		2.014828857421875	-0.2507523193359375	0		3.39018798828125	-0.42152978515625	0		4.81356982421875	-0.19076788330078126	0		5.9676796875	0.34984613037109374	0		-0.24851620483398437	5.91921533203125	0		
-3.772130012512207E-4	0.0042662439346313474	0		0.6545501098632812	-2.610403076171875	0		-0.9298047485351563	0.2665588989257813	0		-0.5855708618164063	-2.41601171875	0		1.9730281982421876	-0.26545004272460937	0		3.3521123046875	-0.46422897338867186	0		4.7846171875	-0.22051922607421875	0		5.95938623046875	0.35522564697265624	0		-0.25130531311035154	5.92206640625	0		
-5.936599895358086E-5	0.00413078498840332	0		0.6269202880859375	-2.61024658203125	0		-0.9294920043945313	0.2664053039550781	0		-0.59631494140625	-2.42704833984375	0		1.9591826171875	-0.28240667724609375	0		3.35127001953125	-0.48128826904296873	0		4.76783056640625	-0.23139144897460937	0		5.95961328125	0.3551936645507813	0		-0.25011285400390626	5.920916015625	0		
-0.015824780464172364	-0.0018079630136489868	0		0.65119384765625	-2.615576171875	0		-0.9232417602539063	0.26223651123046876	0		-0.5941619262695312	-2.4441728515625	0		1.9473209228515624	-0.29836154174804685	0		3.349220947265625	-0.5163252563476562	0		4.75592822265625	-0.25131285095214845	0		5.95982373046875	0.3551465454101562	0		-0.2357706756591797	5.93267529296875	0		
-0.0035372219085693358	1.1207000352442264E-5	0		0.61046484375	-2.616226806640625	0		-0.9189349365234375	0.26613143920898436	0		-0.58700341796875	-2.4563056640625	0		1.9374615478515624	-0.3113147277832031	0		3.331552001953125	-0.5101940612792969	0		4.733009765625	-0.27012493896484374	0		5.9600146484375	0.3550829162597656	0		-0.2355266571044922	5.93261279296875	0		
7.460880279541016E-4	0.0039465720653533935	0		0.6366676025390625	-2.619512451171875	0		-0.9096210327148437	0.27302032470703125	0		-0.5938382568359375	-2.463258056640625	0		1.903656005859375	-0.31600799560546877	0		3.31740625	-0.5490899047851563	0		4.719193359375	-0.2760276794433594	0		5.9601884765625	0.35500140380859374	0		-0.2503694763183594	5.92173876953125	0		
-0.003992505073547363	0.008007493019104004	0		0.6009799194335937	-2.607150390625	0		-0.9093966064453125	0.27304217529296876	0		-0.5657564697265625	-2.474518310546875	0		1.8996944580078126	-0.3339779663085938	0		3.305601806640625	-0.550997314453125	0		4.71315283203125	-0.3020098876953125	0		5.9638408203125	0.33751553344726565	0		-0.28313784790039065	5.91608203125	0		
0.0200978946685791	-0.003185713052749634	0		0.6579185180664062	-2.62868408203125	0		-0.9091901245117188	0.27310540771484376	0		-0.5599125366210937	-2.50552001953125	0		1.8768504638671875	-0.3377388916015625	0		3.277514404296875	-0.578734130859375	0		4.70520849609375	-0.31597415161132814	0		5.95613818359375	0.33758499145507814	0		-0.23465554809570313	5.9326533203125	0		
-0.005717968940734864	-0.002848007917404175	0		0.5951751708984375	-2.61399365234375	0		-0.909	0.27320745849609374	0		-0.536957275390625	-2.521656494140625	0		1.8499456787109374	-0.34543994140625	0		3.274632080078125	-0.583712646484375	0		4.69625341796875	-0.32892999267578127	0		5.956267578125	0.3374453430175781	0		-0.23716526794433593	5.94776708984375	0		
-0.010502490997314453	0.0023099780082702637	0		0.6430702514648438	-2.63238671875	0		-0.9787821044921875	0.27804827880859373	0		-0.6159020385742188	-2.5237373046875	0		1.874897216796875	-0.36564361572265625	0		3.2735166015625	-0.6097022094726563	0		4.69032763671875	-0.3369174499511719	0		5.9649208984375	0.33188925170898437	0		-0.18565458679199218	5.96236962890625	0		
0.0066142091751098635	-7.253280282020569E-4	0		0.6201858520507812	-2.625044921875	0		-0.9535944213867188	0.28097024536132814	0		-0.521241943359375	-2.562533447265625	0		1.875030517578125	-0.36558209228515626	0		3.27678125	-0.5957268676757812	0		4.68740185546875	-0.3429365234375	0		5.967970703125	0.354132568359375	0		-0.23543028259277343	5.947017578125	0		
0.0017964190244674683	0.004485806941986084	0		0.633217529296875	-2.6230439453125	0		-0.8944027099609375	0.28557681274414065	0		-0.53941845703125	-2.58116552734375	0		1.8758919677734376	-0.39051504516601565	0		3.233614501953125	-0.6222777709960937	0		4.67854833984375	-0.3398973693847656	0		5.96863134765625	0.31932315063476563	0		-0.24729154968261718	5.92131201171875	0		
-0.006076661109924317	0.005751100063323975	0		0.6301490478515624	-2.627861328125	0		-0.8942720336914063	0.28580645751953127	0		-0.5018228759765625	-2.6193388671875	0		1.8289193115234375	-0.396947998046875	0		3.241596435546875	-0.6323397216796875	0		4.67744384765625	-0.35994091796875	0		5.9650732421875	0.3018995361328125	0		-0.28092236328125	5.91685498046875	0		
